<mxfile host="app.diagrams.net" modified="2020-11-23T08:33:16.589Z" agent="5.0 (Windows NT 10.0; Win64; x64) AppleWebKit/537.36 (KHTML, like Gecko) Chrome/86.0.4240.198 Safari/537.36" etag="a_WudWqq0Zh8x3sn0GCm" version="13.10.1" type="github">
  <diagram id="ZlR-kkMjVnZxiTd7vD3t" name="第 1 页">
    <mxGraphModel dx="1209" dy="781" grid="1" gridSize="10" guides="1" tooltips="1" connect="1" arrows="1" fold="1" page="1" pageScale="1" pageWidth="1920" pageHeight="1200" math="0" shadow="0">
      <root>
        <mxCell id="0" />
        <mxCell id="1" parent="0" />
        <mxCell id="kv9V8m4b6kU2G2PJg6lb-9" value="行政区划" style="swimlane;fontStyle=0;childLayout=stackLayout;horizontal=1;startSize=26;horizontalStack=0;resizeParent=1;resizeParentMax=0;resizeLast=0;collapsible=1;marginBottom=0;align=center;fontSize=14;" vertex="1" parent="1">
          <mxGeometry x="510" y="340" width="190" height="116" as="geometry" />
        </mxCell>
        <mxCell id="kv9V8m4b6kU2G2PJg6lb-17" value="id" style="text;strokeColor=none;fillColor=none;spacingLeft=4;spacingRight=4;overflow=hidden;rotatable=0;points=[[0,0.5],[1,0.5]];portConstraint=eastwest;fontSize=12;" vertex="1" parent="kv9V8m4b6kU2G2PJg6lb-9">
          <mxGeometry y="26" width="190" height="30" as="geometry" />
        </mxCell>
        <mxCell id="kv9V8m4b6kU2G2PJg6lb-11" value="orgcode" style="text;strokeColor=none;fillColor=none;spacingLeft=4;spacingRight=4;overflow=hidden;rotatable=0;points=[[0,0.5],[1,0.5]];portConstraint=eastwest;fontSize=12;" vertex="1" parent="kv9V8m4b6kU2G2PJg6lb-9">
          <mxGeometry y="56" width="190" height="30" as="geometry" />
        </mxCell>
        <mxCell id="kv9V8m4b6kU2G2PJg6lb-12" value="树形结构（incode,p_code）" style="text;strokeColor=none;fillColor=none;spacingLeft=4;spacingRight=4;overflow=hidden;rotatable=0;points=[[0,0.5],[1,0.5]];portConstraint=eastwest;fontSize=12;" vertex="1" parent="kv9V8m4b6kU2G2PJg6lb-9">
          <mxGeometry y="86" width="190" height="30" as="geometry" />
        </mxCell>
        <mxCell id="kv9V8m4b6kU2G2PJg6lb-19" value="经济组织" style="swimlane;fontStyle=0;childLayout=stackLayout;horizontal=1;startSize=26;horizontalStack=0;resizeParent=1;resizeParentMax=0;resizeLast=0;collapsible=1;marginBottom=0;align=center;fontSize=14;" vertex="1" parent="1">
          <mxGeometry x="842" y="180" width="190" height="116" as="geometry" />
        </mxCell>
        <mxCell id="kv9V8m4b6kU2G2PJg6lb-20" value="id" style="text;strokeColor=none;fillColor=none;spacingLeft=4;spacingRight=4;overflow=hidden;rotatable=0;points=[[0,0.5],[1,0.5]];portConstraint=eastwest;fontSize=12;" vertex="1" parent="kv9V8m4b6kU2G2PJg6lb-19">
          <mxGeometry y="26" width="190" height="30" as="geometry" />
        </mxCell>
        <mxCell id="kv9V8m4b6kU2G2PJg6lb-21" value="orgcode" style="text;strokeColor=none;fillColor=none;spacingLeft=4;spacingRight=4;overflow=hidden;rotatable=0;points=[[0,0.5],[1,0.5]];portConstraint=eastwest;fontSize=12;" vertex="1" parent="kv9V8m4b6kU2G2PJg6lb-19">
          <mxGeometry y="56" width="190" height="30" as="geometry" />
        </mxCell>
        <mxCell id="kv9V8m4b6kU2G2PJg6lb-22" value="树形结构（p_code）" style="text;strokeColor=none;fillColor=none;spacingLeft=4;spacingRight=4;overflow=hidden;rotatable=0;points=[[0,0.5],[1,0.5]];portConstraint=eastwest;fontSize=12;" vertex="1" parent="kv9V8m4b6kU2G2PJg6lb-19">
          <mxGeometry y="86" width="190" height="30" as="geometry" />
        </mxCell>
        <mxCell id="kv9V8m4b6kU2G2PJg6lb-23" style="rounded=0;orthogonalLoop=1;jettySize=auto;html=1;exitX=0;exitY=0.5;exitDx=0;exitDy=0;entryX=1;entryY=0.5;entryDx=0;entryDy=0;" edge="1" parent="1" source="kv9V8m4b6kU2G2PJg6lb-21" target="kv9V8m4b6kU2G2PJg6lb-17">
          <mxGeometry relative="1" as="geometry" />
        </mxCell>
        <mxCell id="kv9V8m4b6kU2G2PJg6lb-26" value="1" style="edgeLabel;html=1;align=center;verticalAlign=middle;resizable=0;points=[];" vertex="1" connectable="0" parent="kv9V8m4b6kU2G2PJg6lb-23">
          <mxGeometry x="0.75" y="-1" relative="1" as="geometry">
            <mxPoint as="offset" />
          </mxGeometry>
        </mxCell>
        <mxCell id="kv9V8m4b6kU2G2PJg6lb-27" value="多" style="edgeLabel;html=1;align=center;verticalAlign=middle;resizable=0;points=[];" vertex="1" connectable="0" parent="kv9V8m4b6kU2G2PJg6lb-23">
          <mxGeometry x="-0.8" y="1" relative="1" as="geometry">
            <mxPoint y="-2" as="offset" />
          </mxGeometry>
        </mxCell>
        <mxCell id="kv9V8m4b6kU2G2PJg6lb-24" value="建立在行政区划底下，多对1" style="text;html=1;align=center;verticalAlign=middle;resizable=0;points=[];autosize=1;" vertex="1" parent="1">
          <mxGeometry x="832" y="150" width="170" height="20" as="geometry" />
        </mxCell>
        <mxCell id="kv9V8m4b6kU2G2PJg6lb-28" value="用户组" style="swimlane;fontStyle=0;childLayout=stackLayout;horizontal=1;startSize=26;horizontalStack=0;resizeParent=1;resizeParentMax=0;resizeLast=0;collapsible=1;marginBottom=0;align=center;fontSize=14;" vertex="1" parent="1">
          <mxGeometry x="820" y="560" width="190" height="116" as="geometry" />
        </mxCell>
        <mxCell id="kv9V8m4b6kU2G2PJg6lb-29" value="id" style="text;strokeColor=none;fillColor=none;spacingLeft=4;spacingRight=4;overflow=hidden;rotatable=0;points=[[0,0.5],[1,0.5]];portConstraint=eastwest;fontSize=12;" vertex="1" parent="kv9V8m4b6kU2G2PJg6lb-28">
          <mxGeometry y="26" width="190" height="30" as="geometry" />
        </mxCell>
        <mxCell id="kv9V8m4b6kU2G2PJg6lb-30" value="xzqh（仅专属的情况下有值）" style="text;strokeColor=none;fillColor=none;spacingLeft=4;spacingRight=4;overflow=hidden;rotatable=0;points=[[0,0.5],[1,0.5]];portConstraint=eastwest;fontSize=12;" vertex="1" parent="kv9V8m4b6kU2G2PJg6lb-28">
          <mxGeometry y="56" width="190" height="30" as="geometry" />
        </mxCell>
        <mxCell id="kv9V8m4b6kU2G2PJg6lb-31" value="通用or专属" style="text;strokeColor=none;fillColor=none;spacingLeft=4;spacingRight=4;overflow=hidden;rotatable=0;points=[[0,0.5],[1,0.5]];portConstraint=eastwest;fontSize=12;" vertex="1" parent="kv9V8m4b6kU2G2PJg6lb-28">
          <mxGeometry y="86" width="190" height="30" as="geometry" />
        </mxCell>
        <mxCell id="kv9V8m4b6kU2G2PJg6lb-32" style="rounded=0;orthogonalLoop=1;jettySize=auto;html=1;entryX=1;entryY=0.5;entryDx=0;entryDy=0;exitX=0;exitY=0.5;exitDx=0;exitDy=0;" edge="1" parent="1" source="kv9V8m4b6kU2G2PJg6lb-30" target="kv9V8m4b6kU2G2PJg6lb-17">
          <mxGeometry relative="1" as="geometry" />
        </mxCell>
        <mxCell id="kv9V8m4b6kU2G2PJg6lb-34" value="权限" style="swimlane;fontStyle=0;childLayout=stackLayout;horizontal=1;startSize=26;horizontalStack=0;resizeParent=1;resizeParentMax=0;resizeLast=0;collapsible=1;marginBottom=0;align=center;fontSize=14;" vertex="1" parent="1">
          <mxGeometry x="1070" y="560" width="190" height="146" as="geometry" />
        </mxCell>
        <mxCell id="kv9V8m4b6kU2G2PJg6lb-35" value="id" style="text;strokeColor=none;fillColor=none;spacingLeft=4;spacingRight=4;overflow=hidden;rotatable=0;points=[[0,0.5],[1,0.5]];portConstraint=eastwest;fontSize=12;" vertex="1" parent="kv9V8m4b6kU2G2PJg6lb-34">
          <mxGeometry y="26" width="190" height="30" as="geometry" />
        </mxCell>
        <mxCell id="kv9V8m4b6kU2G2PJg6lb-36" value="groupid" style="text;strokeColor=none;fillColor=none;spacingLeft=4;spacingRight=4;overflow=hidden;rotatable=0;points=[[0,0.5],[1,0.5]];portConstraint=eastwest;fontSize=12;" vertex="1" parent="kv9V8m4b6kU2G2PJg6lb-34">
          <mxGeometry y="56" width="190" height="30" as="geometry" />
        </mxCell>
        <mxCell id="kv9V8m4b6kU2G2PJg6lb-37" value="menuid" style="text;strokeColor=none;fillColor=none;spacingLeft=4;spacingRight=4;overflow=hidden;rotatable=0;points=[[0,0.5],[1,0.5]];portConstraint=eastwest;fontSize=12;" vertex="1" parent="kv9V8m4b6kU2G2PJg6lb-34">
          <mxGeometry y="86" width="190" height="30" as="geometry" />
        </mxCell>
        <mxCell id="kv9V8m4b6kU2G2PJg6lb-49" value="sysid" style="text;strokeColor=none;fillColor=none;spacingLeft=4;spacingRight=4;overflow=hidden;rotatable=0;points=[[0,0.5],[1,0.5]];portConstraint=eastwest;fontSize=12;" vertex="1" parent="kv9V8m4b6kU2G2PJg6lb-34">
          <mxGeometry y="116" width="190" height="30" as="geometry" />
        </mxCell>
        <mxCell id="kv9V8m4b6kU2G2PJg6lb-38" value="菜单" style="swimlane;fontStyle=0;childLayout=stackLayout;horizontal=1;startSize=26;horizontalStack=0;resizeParent=1;resizeParentMax=0;resizeLast=0;collapsible=1;marginBottom=0;align=center;fontSize=14;" vertex="1" parent="1">
          <mxGeometry x="1310" y="560" width="190" height="116" as="geometry" />
        </mxCell>
        <mxCell id="kv9V8m4b6kU2G2PJg6lb-39" value="id" style="text;strokeColor=none;fillColor=none;spacingLeft=4;spacingRight=4;overflow=hidden;rotatable=0;points=[[0,0.5],[1,0.5]];portConstraint=eastwest;fontSize=12;" vertex="1" parent="kv9V8m4b6kU2G2PJg6lb-38">
          <mxGeometry y="26" width="190" height="30" as="geometry" />
        </mxCell>
        <mxCell id="kv9V8m4b6kU2G2PJg6lb-40" value="xzqh（仅专属的情况下有值）" style="text;strokeColor=none;fillColor=none;spacingLeft=4;spacingRight=4;overflow=hidden;rotatable=0;points=[[0,0.5],[1,0.5]];portConstraint=eastwest;fontSize=12;" vertex="1" parent="kv9V8m4b6kU2G2PJg6lb-38">
          <mxGeometry y="56" width="190" height="30" as="geometry" />
        </mxCell>
        <mxCell id="kv9V8m4b6kU2G2PJg6lb-41" value="通用or专属" style="text;strokeColor=none;fillColor=none;spacingLeft=4;spacingRight=4;overflow=hidden;rotatable=0;points=[[0,0.5],[1,0.5]];portConstraint=eastwest;fontSize=12;" vertex="1" parent="kv9V8m4b6kU2G2PJg6lb-38">
          <mxGeometry y="86" width="190" height="30" as="geometry" />
        </mxCell>
        <mxCell id="kv9V8m4b6kU2G2PJg6lb-42" style="edgeStyle=none;rounded=0;orthogonalLoop=1;jettySize=auto;html=1;exitX=0;exitY=0.5;exitDx=0;exitDy=0;entryX=1;entryY=0.5;entryDx=0;entryDy=0;" edge="1" parent="1" source="kv9V8m4b6kU2G2PJg6lb-36" target="kv9V8m4b6kU2G2PJg6lb-29">
          <mxGeometry relative="1" as="geometry" />
        </mxCell>
        <mxCell id="kv9V8m4b6kU2G2PJg6lb-43" style="edgeStyle=none;rounded=0;orthogonalLoop=1;jettySize=auto;html=1;exitX=1;exitY=0.5;exitDx=0;exitDy=0;entryX=0;entryY=0.5;entryDx=0;entryDy=0;" edge="1" parent="1" source="kv9V8m4b6kU2G2PJg6lb-37" target="kv9V8m4b6kU2G2PJg6lb-39">
          <mxGeometry relative="1" as="geometry" />
        </mxCell>
        <mxCell id="kv9V8m4b6kU2G2PJg6lb-44" value="系统" style="swimlane;fontStyle=0;childLayout=stackLayout;horizontal=1;startSize=26;horizontalStack=0;resizeParent=1;resizeParentMax=0;resizeLast=0;collapsible=1;marginBottom=0;align=center;fontSize=14;" vertex="1" parent="1">
          <mxGeometry x="1310" y="750" width="190" height="86" as="geometry" />
        </mxCell>
        <mxCell id="kv9V8m4b6kU2G2PJg6lb-45" value="id" style="text;strokeColor=none;fillColor=none;spacingLeft=4;spacingRight=4;overflow=hidden;rotatable=0;points=[[0,0.5],[1,0.5]];portConstraint=eastwest;fontSize=12;" vertex="1" parent="kv9V8m4b6kU2G2PJg6lb-44">
          <mxGeometry y="26" width="190" height="30" as="geometry" />
        </mxCell>
        <mxCell id="kv9V8m4b6kU2G2PJg6lb-47" value="通用or专属" style="text;strokeColor=none;fillColor=none;spacingLeft=4;spacingRight=4;overflow=hidden;rotatable=0;points=[[0,0.5],[1,0.5]];portConstraint=eastwest;fontSize=12;" vertex="1" parent="kv9V8m4b6kU2G2PJg6lb-44">
          <mxGeometry y="56" width="190" height="30" as="geometry" />
        </mxCell>
        <mxCell id="kv9V8m4b6kU2G2PJg6lb-48" value="最高级别的模块" style="text;html=1;align=center;verticalAlign=middle;resizable=0;points=[];autosize=1;" vertex="1" parent="1">
          <mxGeometry x="1350" y="730" width="100" height="20" as="geometry" />
        </mxCell>
        <mxCell id="kv9V8m4b6kU2G2PJg6lb-50" style="edgeStyle=none;rounded=0;orthogonalLoop=1;jettySize=auto;html=1;exitX=1;exitY=0.5;exitDx=0;exitDy=0;entryX=0;entryY=0.5;entryDx=0;entryDy=0;" edge="1" parent="1" source="kv9V8m4b6kU2G2PJg6lb-49" target="kv9V8m4b6kU2G2PJg6lb-45">
          <mxGeometry relative="1" as="geometry" />
        </mxCell>
        <mxCell id="kv9V8m4b6kU2G2PJg6lb-51" value="主要用于权限控制" style="text;html=1;align=center;verticalAlign=middle;resizable=0;points=[];autosize=1;" vertex="1" parent="1">
          <mxGeometry x="820" y="540" width="110" height="20" as="geometry" />
        </mxCell>
        <mxCell id="kv9V8m4b6kU2G2PJg6lb-52" value="用户" style="swimlane;fontStyle=0;childLayout=stackLayout;horizontal=1;startSize=26;horizontalStack=0;resizeParent=1;resizeParentMax=0;resizeLast=0;collapsible=1;marginBottom=0;align=center;fontSize=14;" vertex="1" parent="1">
          <mxGeometry x="1250" y="310" width="190" height="116" as="geometry" />
        </mxCell>
        <mxCell id="kv9V8m4b6kU2G2PJg6lb-53" value="id" style="text;strokeColor=none;fillColor=none;spacingLeft=4;spacingRight=4;overflow=hidden;rotatable=0;points=[[0,0.5],[1,0.5]];portConstraint=eastwest;fontSize=12;" vertex="1" parent="kv9V8m4b6kU2G2PJg6lb-52">
          <mxGeometry y="26" width="190" height="30" as="geometry" />
        </mxCell>
        <mxCell id="kv9V8m4b6kU2G2PJg6lb-55" value="orgcode" style="text;strokeColor=none;fillColor=none;spacingLeft=4;spacingRight=4;overflow=hidden;rotatable=0;points=[[0,0.5],[1,0.5]];portConstraint=eastwest;fontSize=12;" vertex="1" parent="kv9V8m4b6kU2G2PJg6lb-52">
          <mxGeometry y="56" width="190" height="30" as="geometry" />
        </mxCell>
        <mxCell id="kv9V8m4b6kU2G2PJg6lb-54" value="groupid" style="text;strokeColor=none;fillColor=none;spacingLeft=4;spacingRight=4;overflow=hidden;rotatable=0;points=[[0,0.5],[1,0.5]];portConstraint=eastwest;fontSize=12;" vertex="1" parent="kv9V8m4b6kU2G2PJg6lb-52">
          <mxGeometry y="86" width="190" height="30" as="geometry" />
        </mxCell>
        <mxCell id="kv9V8m4b6kU2G2PJg6lb-56" value="权限=菜单+系统，然后分配给用户组" style="text;html=1;align=center;verticalAlign=middle;resizable=0;points=[];autosize=1;" vertex="1" parent="1">
          <mxGeometry x="1060" y="540" width="210" height="20" as="geometry" />
        </mxCell>
        <mxCell id="kv9V8m4b6kU2G2PJg6lb-58" style="edgeStyle=none;rounded=0;orthogonalLoop=1;jettySize=auto;html=1;exitX=0;exitY=0.5;exitDx=0;exitDy=0;entryX=1;entryY=0.5;entryDx=0;entryDy=0;" edge="1" parent="1" source="kv9V8m4b6kU2G2PJg6lb-55" target="kv9V8m4b6kU2G2PJg6lb-17">
          <mxGeometry relative="1" as="geometry" />
        </mxCell>
        <mxCell id="kv9V8m4b6kU2G2PJg6lb-59" style="edgeStyle=none;rounded=0;orthogonalLoop=1;jettySize=auto;html=1;exitX=0;exitY=0.5;exitDx=0;exitDy=0;entryX=1;entryY=0.5;entryDx=0;entryDy=0;" edge="1" parent="1" source="kv9V8m4b6kU2G2PJg6lb-54" target="kv9V8m4b6kU2G2PJg6lb-29">
          <mxGeometry relative="1" as="geometry" />
        </mxCell>
        <mxCell id="kv9V8m4b6kU2G2PJg6lb-60" value="用户_经济组织" style="swimlane;fontStyle=0;childLayout=stackLayout;horizontal=1;startSize=26;horizontalStack=0;resizeParent=1;resizeParentMax=0;resizeLast=0;collapsible=1;marginBottom=0;align=center;fontSize=14;" vertex="1" parent="1">
          <mxGeometry x="1090" y="254" width="120" height="86" as="geometry" />
        </mxCell>
        <mxCell id="kv9V8m4b6kU2G2PJg6lb-63" value="zuzhi_id" style="text;strokeColor=none;fillColor=none;spacingLeft=4;spacingRight=4;overflow=hidden;rotatable=0;points=[[0,0.5],[1,0.5]];portConstraint=eastwest;fontSize=12;" vertex="1" parent="kv9V8m4b6kU2G2PJg6lb-60">
          <mxGeometry y="26" width="120" height="30" as="geometry" />
        </mxCell>
        <mxCell id="kv9V8m4b6kU2G2PJg6lb-62" value="user_id" style="text;strokeColor=none;fillColor=none;spacingLeft=4;spacingRight=4;overflow=hidden;rotatable=0;points=[[0,0.5],[1,0.5]];portConstraint=eastwest;fontSize=12;" vertex="1" parent="kv9V8m4b6kU2G2PJg6lb-60">
          <mxGeometry y="56" width="120" height="30" as="geometry" />
        </mxCell>
        <mxCell id="kv9V8m4b6kU2G2PJg6lb-64" style="edgeStyle=none;rounded=0;orthogonalLoop=1;jettySize=auto;html=1;exitX=0;exitY=0.5;exitDx=0;exitDy=0;entryX=1;entryY=0.5;entryDx=0;entryDy=0;" edge="1" parent="1" source="kv9V8m4b6kU2G2PJg6lb-53" target="kv9V8m4b6kU2G2PJg6lb-62">
          <mxGeometry relative="1" as="geometry" />
        </mxCell>
        <mxCell id="kv9V8m4b6kU2G2PJg6lb-65" style="edgeStyle=none;rounded=0;orthogonalLoop=1;jettySize=auto;html=1;exitX=0;exitY=0.5;exitDx=0;exitDy=0;entryX=1;entryY=0.5;entryDx=0;entryDy=0;" edge="1" parent="1" source="kv9V8m4b6kU2G2PJg6lb-63" target="kv9V8m4b6kU2G2PJg6lb-20">
          <mxGeometry relative="1" as="geometry" />
        </mxCell>
        <mxCell id="kv9V8m4b6kU2G2PJg6lb-66" value="创建用户时可选择村级行&lt;br&gt;政区划下的多个经济组织" style="text;html=1;align=center;verticalAlign=middle;resizable=0;points=[];autosize=1;" vertex="1" parent="1">
          <mxGeometry x="1075" y="223" width="150" height="30" as="geometry" />
        </mxCell>
      </root>
    </mxGraphModel>
  </diagram>
</mxfile>
